<?xml version="1.0" encoding="UTF-8"?>
<svg version="1.1" xmlns="http://www.w3.org/2000/svg" width="512" height="512">
<path d="M0 0 C1.24523437 0.01804687 2.49046875 0.03609375 3.7734375 0.0546875 C5.18496094 0.08949219 5.18496094 0.08949219 6.625 0.125 C21.20298197 29.03972075 30.27139329 58.91583416 33.625 91.125 C34.41261719 91.40472656 35.20023438 91.68445313 36.01171875 91.97265625 C73.42493384 105.74249044 99.78754874 136.43855184 117.625 171.125 C118.00076172 171.8360791 118.37652344 172.5471582 118.76367188 173.27978516 C130.13093244 194.92584675 137.44887617 219.0971571 141.625 243.125 C141.78581055 244.00510742 141.94662109 244.88521484 142.11230469 245.79199219 C144.34400822 258.36775662 144.94479455 270.88203725 145.0625 283.625 C145.07471588 284.33548492 145.08693176 285.04596985 145.09951782 285.77798462 C145.37915325 305.03602741 140.13207049 322.82055326 126.625 337.125 C113.01206706 350.20088755 98.84145526 352.59503264 80.78125 352.421875 C72.77086101 352.18077607 64.85713712 350.74106856 57.625 347.125 C56.965 349.105 56.305 351.085 55.625 353.125 C56.181875 353.68445313 56.73875 354.24390625 57.3125 354.8203125 C65.8981701 363.84106723 71.59267831 373.83168781 76 385.375 C76.23871826 385.99971191 76.47743652 386.62442383 76.72338867 387.26806641 C84.01446398 407.49321926 82.82060114 431.03487683 73.83862305 450.3894043 C70.50565766 457.2448613 66.78925207 463.47627718 61.625 469.125 C60.82449219 470.01703125 60.02398437 470.9090625 59.19921875 471.828125 C45.72075286 486.10632621 26.9065857 495.7751763 7.07421875 496.55859375 C4.82043327 496.58196268 2.56631536 496.58278289 0.3125 496.5625 C-0.87158447 496.55492676 -2.05566895 496.54735352 -3.27563477 496.53955078 C-21.82655641 496.1909975 -37.22497348 490.46322011 -50.375 477.125 C-50.96152344 476.54878906 -51.54804688 475.97257812 -52.15234375 475.37890625 C-62.19129698 464.72688717 -63.99479664 450.66843611 -63.6796875 436.703125 C-63.23455386 427.63122776 -59.71182031 421.59032608 -53.546875 415.04296875 C-50.38715572 412.25264112 -47.26364103 410.72212042 -43.375 409.125 C-43.57996094 408.44953125 -43.78492188 407.7740625 -43.99609375 407.078125 C-44.26550781 406.18609375 -44.53492188 405.2940625 -44.8125 404.375 C-45.07933594 403.49328125 -45.34617188 402.6115625 -45.62109375 401.703125 C-48.90148835 390.48519526 -49.36926437 376.15606674 -44.6015625 365.3515625 C-42.97826234 362.40480743 -41.22595407 359.58831887 -39.23046875 356.87890625 C-38.18018021 355.14760446 -38.18018021 355.14760446 -38.67578125 353.15234375 C-38.90652344 352.48332031 -39.13726562 351.81429688 -39.375 351.125 C-39.70833333 349.79166667 -40.04166667 348.45833333 -40.375 347.125 C-41.509375 347.57875 -42.64375 348.0325 -43.8125 348.5 C-52.17180376 351.84372151 -60.38402029 352.46559465 -69.3125 352.4375 C-70.33279297 352.45361328 -71.35308594 352.46972656 -72.40429688 352.48632812 C-86.98717331 352.49563436 -99.40481312 346.82121901 -109.95703125 336.7890625 C-128.1840483 316.70695324 -128.53332868 291.83159818 -127.375 266.125 C-125.89855946 243.17031784 -121.26878837 220.05424732 -114.375 198.125 C-115.30376953 198.0825415 -116.23253906 198.04008301 -117.18945312 197.99633789 C-128.17954234 197.41125498 -138.98188654 196.10046463 -149.875 194.5625 C-151.58456033 194.3256293 -153.29419554 194.08929841 -155.00390625 193.85351562 C-159.12849005 193.28353481 -163.25200505 192.70635766 -167.375 192.125 C-168.3556854 184.61794714 -169.33402931 177.11059173 -170.31079102 169.60302734 C-170.64294143 167.05217678 -170.97561625 164.50139444 -171.30883789 161.95068359 C-171.78932315 158.27199075 -172.26788549 154.59305194 -172.74609375 150.9140625 C-172.89404892 149.78449127 -173.04200409 148.65492004 -173.19444275 147.49111938 C-178.91270102 103.38588932 -178.91270102 103.38588932 -171.375 86.125 C-170.87742187 84.94164063 -170.37984375 83.75828125 -169.8671875 82.5390625 C-166.28935318 74.51717012 -161.65575109 68.23037235 -155.375 62.125 C-154.43720703 61.15626953 -154.43720703 61.15626953 -153.48046875 60.16796875 C-142.31976034 49.38319999 -129.07966545 47.63114815 -114.34375 47.84765625 C-108.41533825 48.07063731 -103.62833821 49.36374124 -98.375 52.125 C-97.56417969 52.51429687 -96.75335938 52.90359375 -95.91796875 53.3046875 C-83.84886413 59.72887232 -75.30939691 70.62205924 -68.375 82.125 C-53.30664007 73.83551377 -39.18257077 61.57467432 -27.375 49.125 C-27.808125 47.92617187 -27.808125 47.92617187 -28.25 46.703125 C-31.81662686 36.15185386 -33.4037363 26.7842883 -28.6328125 16.375 C-24.43458341 8.86512436 -18.51452422 4.20528361 -10.5859375 0.99609375 C-6.92560496 0.00308383 -3.78636667 -0.07144088 0 0 Z M-25.88452148 72.08862305 C-33.15624561 78.59054074 -40.70750607 84.44116081 -48.73413086 89.98510742 C-49.47026611 90.49920166 -50.20640137 91.0132959 -50.96484375 91.54296875 C-51.62347412 91.99438232 -52.28210449 92.4457959 -52.96069336 92.91088867 C-53.66077515 93.51187378 -53.66077515 93.51187378 -54.375 94.125 C-54.375 94.785 -54.375 95.445 -54.375 96.125 C-52.592871 97.56574715 -50.74839724 98.93010649 -48.875 100.25 C-47.8540625 100.97445312 -46.833125 101.69890625 -45.78125 102.4453125 C-44.9871875 102.99960938 -44.193125 103.55390625 -43.375 104.125 C-42.34761719 103.59390625 -41.32023438 103.0628125 -40.26171875 102.515625 C-32.45098708 98.51961238 -24.75051105 94.82219847 -16.375 92.125 C-16.76112648 83.75004986 -17.82675967 76.12230769 -20.375 68.125 C-22.63167401 68.125 -24.27015604 70.64501424 -25.88452148 72.08862305 Z M-13.25 406.5625 C-14.54840766 408.99370335 -14.54840766 408.99370335 -14.25 411.3125 C-13.39285339 413.48009414 -13.39285339 413.48009414 -10.375 415.125 C-3.70359703 415.94299049 1.71494881 415.2770273 7.625 412.125 C7.90799062 408.44612194 8.08892977 405.94742096 6.25 402.6875 C-0.53829732 398.64684683 -8.53941579 400.43874053 -13.25 406.5625 Z " fill="#010101" transform="translate(247.375,7.875)"/>
<path d="M0 0 C1.52367187 0.08894531 1.52367187 0.08894531 3.078125 0.1796875 C28.16756673 3.05305932 50.25022346 21.62517809 65.48046875 40.64453125 C84.40184408 65.52055264 98.64641234 94.57136141 106 125 C106.33386719 126.2478125 106.66773438 127.495625 107.01171875 128.78125 C113.56776801 154.42518505 118.92645511 188.08012378 105.72265625 212.34765625 C99.6898158 222.09044291 91.2762771 229.2846423 80 232 C69.49506699 233.24936718 57.60024535 232.80012267 48 228 C48.10441406 226.10894531 48.10441406 226.10894531 48.2109375 224.1796875 C48.70147057 210.96842141 46.69599486 199.70525928 42.66430664 187.14038086 C42.03313587 185.10676303 41.49549309 183.07037984 41 181 C40.08476562 181.433125 39.16953125 181.86625 38.2265625 182.3125 C37.03804687 182.869375 35.84953125 183.42625 34.625 184 C33.44164062 184.556875 32.25828125 185.11375 31.0390625 185.6875 C28 187 28 187 26 187 C26.26554688 187.56847656 26.53109375 188.13695312 26.8046875 188.72265625 C30.31530668 196.39733103 32.38669045 203.58482251 33 212 C33.06574219 212.69867188 33.13148438 213.39734375 33.19921875 214.1171875 C33.75525744 224.58605395 29.73339583 235.07196942 23 243 C14.86555866 251.48884646 5.44567702 255.82434464 -6.3125 256.3125 C-18.37487408 255.95525199 -28.92016347 251.5340089 -37.3125 242.875 C-45.96206235 232.54455104 -47.73800518 220.64918695 -46.75 207.6875 C-45.87972142 200.5234676 -43.37204346 193.36605514 -40 187 C-40.804375 186.7525 -41.60875 186.505 -42.4375 186.25 C-46.74324143 184.73921353 -50.85364007 182.89811144 -55 181 C-56.05298283 184.31849136 -57.02691104 187.65729691 -58 191 C-58.35964844 192.15113281 -58.71929687 193.30226563 -59.08984375 194.48828125 C-62.3143885 205.72254925 -62.44118323 216.36633766 -62 228 C-63.58298026 228.4803318 -65.16639978 228.95921612 -66.75 229.4375 C-67.63171875 229.70433594 -68.5134375 229.97117187 -69.421875 230.24609375 C-80.34356924 233.43986191 -92.95995507 233.78030609 -103.3203125 228.671875 C-114.78997886 221.51587325 -122.2322011 210.94577057 -126 198 C-131.26202388 165.55085271 -124.47885932 127.92290837 -114 97 C-112.35263901 95.35263901 -110.37265172 95.79475765 -108.1015625 95.7109375 C-89.28777363 94.78779658 -72.52332197 91.86280564 -58 79 C-57.26523438 78.36191406 -56.53046875 77.72382813 -55.7734375 77.06640625 C-46.06559839 68.03120767 -40.07307957 56.00392168 -39.52807617 42.7043457 C-39.41206547 33.5959928 -40.75214955 25.23996875 -45.63671875 17.359375 C-47 15 -47 15 -47 12 C-31.44444701 3.67676905 -17.79400508 -1.14480175 0 0 Z " fill="#FD816D" transform="translate(263,112)"/>
<path d="M0 0 C13.934195 13.08969833 21.62821163 30.60716169 22.52368164 49.67260742 C22.84363264 68.34044018 15.74519736 84.93029403 2.83984375 98.3984375 C-10.60097302 110.71148285 -27.09968176 116.94554639 -45.29833984 116.64306641 C-59.62615256 115.95017052 -72.33405366 111.25037672 -82.375 100.6875 C-89.15946122 92.21172833 -90.90141286 81.52494736 -90 71 C-88.77872399 66.94536366 -86.4997139 64.47533762 -83.4375 61.5625 C-78.05133635 59.11424379 -72.55859499 58.8944806 -66.875 60.66015625 C-62.04430994 63.06509031 -60.08578724 66.24440508 -58 71 C-58 72.65 -58 74.3 -58 76 C-52.72 76 -47.44 76 -42 76 C-42.495 71.545 -42.495 71.545 -43 67 C-42.21496094 66.82984375 -41.42992187 66.6596875 -40.62109375 66.484375 C-30.30025284 64.41482947 -30.30025284 64.41482947 -22.46875 57.90625 C-18.95361694 51.73523862 -17.77875699 46.01714222 -19 39 C-21.32473644 31.60989746 -25.25602439 26.7807136 -32 23 C-38.98260137 19.6358659 -47.53611482 19.96818077 -54.875 22.1875 C-61.78040851 24.89898151 -66.28418722 28.60880202 -70 35 C-74.08080458 30.91919542 -74.22188949 25.33498013 -74.5 19.8125 C-74.43210119 12.49640314 -71.73193536 7.16435752 -68 1 C-67.20142578 1.4021875 -67.20142578 1.4021875 -66.38671875 1.8125 C-50.50079382 9.71646265 -35.73923944 14.38808675 -18 9 C-11.54476573 6.67578715 -5.50443573 4.12832679 0 0 Z " fill="#FCE7A5" transform="translate(290,372)"/>
<path d="M0 0 C20.37559268 0.83735312 35.70871233 10.08791731 50 24 C50.80824219 24.74636719 51.61648438 25.49273437 52.44921875 26.26171875 C73.99263864 46.72289463 88.70866196 76.49749674 96 105 C96.29100586 106.09731445 96.29100586 106.09731445 96.58789062 107.21679688 C101.90667723 127.41533092 104.61183221 147.10706288 104 168 C98.72 168 93.44 168 88 168 C87.83564453 165.48052734 87.83564453 165.48052734 87.66796875 162.91015625 C86.78958378 150.11137498 85.77782599 137.53642428 83 125 C82.83129395 124.22527344 82.66258789 123.45054687 82.48876953 122.65234375 C76.07508716 93.77074819 64.49415608 65.57015703 45 43 C44.31550781 42.17113281 43.63101563 41.34226563 42.92578125 40.48828125 C31.53057915 27.12909458 17.50103322 18.3334711 0 16 C0 10.72 0 5.44 0 0 Z " fill="#030101" transform="translate(256,128)"/>
<path d="M0 0 C11.71703987 10.88576339 15.88531769 30.45969738 17 46 C17.06094621 48.18675006 17.08764316 50.37504529 17.0625 52.5625 C17.05347656 53.59503906 17.04445312 54.62757813 17.03515625 55.69140625 C17.02355469 56.45324219 17.01195312 57.21507812 17 58 C8.96235969 60.07422976 1.27015524 60.2144997 -7 60 C-7.76876496 56.12920097 -8.15602372 52.29741058 -8.4296875 48.3671875 C-8.50316406 47.31273437 -8.57664063 46.25828125 -8.65234375 45.171875 C-8.7991707 42.9978058 -8.9399344 40.82331744 -9.07421875 38.6484375 C-9.54707596 32.04446563 -10.58893423 26.01204635 -12.48095703 19.66064453 C-13.06155262 16.68447768 -12.92515477 14.87769467 -12 12 C-10.78491211 10.33081055 -10.78491211 10.33081055 -9.27734375 8.88671875 C-8.73916016 8.36142578 -8.20097656 7.83613281 -7.64648438 7.29492188 C-7.08251953 6.76447266 -6.51855469 6.23402344 -5.9375 5.6875 C-5.08575195 4.86282227 -5.08575195 4.86282227 -4.21679688 4.02148438 C-2.82009075 2.67172635 -1.41121163 1.33458475 0 0 Z " fill="#B0D97C" transform="translate(159,132)"/>
<path d="M0 0 C11.18288053 3.16903588 21.27536492 12.3551823 27.33984375 22.16796875 C31.56742096 30.18682516 32.473937 39.29838028 30.19921875 48.09765625 C27.36493513 55.64600609 23.03561241 61.64028132 17 67 C16.34 67 15.68 67 15 67 C13.80559887 61.96645237 12.83453447 57.0001195 12.125 51.875 C9.50322882 34.77390159 3.56276136 20.34414204 -6 6 C-4.02 4.02 -2.04 2.04 0 0 Z " fill="#B0D97C" transform="translate(177,114)"/>
<path d="M0 0 C19.33661922 46.42679724 19.33661922 46.42679724 19 71 C13.72 71 8.44 71 3 71 C2.773125 69.453125 2.54625 67.90625 2.3125 66.3125 C-0.12856271 51.86954562 -3.77526117 37.8181578 -8.67651367 24.01586914 C-10.31452151 19.35455372 -11.68629537 14.97535538 -12 10 C-9.47177325 5.04078599 -5.93796461 0 0 0 Z " fill="#CA9A73" transform="translate(244,25)"/>
<path d="M0 0 C2.33203125 0.28515625 2.33203125 0.28515625 5.125 0.875 C6.89423828 1.21337891 6.89423828 1.21337891 8.69921875 1.55859375 C24.25813296 4.83814025 37.48272668 11.33784644 50.125 20.875 C51.29289062 21.74898437 51.29289062 21.74898437 52.484375 22.640625 C53.02578125 23.04796875 53.5671875 23.4553125 54.125 23.875 C52.59083702 27.86382376 49.7002926 31.52283382 46.125 33.875 C43.33873054 33.38998945 40.9907144 32.42783129 38.47265625 31.16796875 C37.78502197 30.83039551 37.0973877 30.49282227 36.38891602 30.14501953 C35.66244873 29.78778809 34.93598145 29.43055664 34.1875 29.0625 C21.09830365 22.77308592 7.86221714 19.12943699 -6.625 18.12109375 C-8.875 17.875 -8.875 17.875 -10.875 16.875 C-10.49841688 9.7199207 -7.34829601 1.65929265 0 0 Z " fill="#B0D87C" transform="translate(101.875,87.125)"/>
<path d="M0 0 C12.51000767 -0.6289948 23.99627551 1.68249411 35.6875 5.9375 C36.3587793 6.17807129 37.03005859 6.41864258 37.72167969 6.66650391 C41.63394339 8.1697628 44.2759766 9.8070308 47 13 C44.92225078 15.3997238 42.78181168 17.73376855 40.625 20.0625 C40.04105469 20.73861328 39.45710938 21.41472656 38.85546875 22.11132812 C34.39010226 26.84077543 34.39010226 26.84077543 30.68310547 27.26538086 C28.06413087 27.01656011 25.57287968 26.54647114 23 26 C21.1447569 25.73765729 19.28790122 25.48649429 17.4296875 25.24609375 C15.5778086 24.97874504 13.72624454 24.70920654 11.875 24.4375 C10.91851562 24.29892578 9.96203125 24.16035156 8.9765625 24.01757812 C6.65075065 23.68033541 4.32524616 23.3411174 2 23 C0.64290496 15.26940505 -0.31918373 7.85546636 0 0 Z " fill="#B1DA7D" transform="translate(88,121)"/>
<path d="M0 0 C2.04745115 3.42456242 2.37174725 6.34360121 2.6328125 10.296875 C2.71660156 11.50214844 2.80039063 12.70742187 2.88671875 13.94921875 C2.96535156 15.20347656 3.04398438 16.45773438 3.125 17.75 C3.21136719 19.01972656 3.29773438 20.28945312 3.38671875 21.59765625 C3.59877276 24.73134331 3.8028956 27.86534294 4 31 C0.49979191 30.68980354 -3.00012407 30.37642017 -6.5 30.0625 C-7.48226562 29.97548828 -8.46453125 29.88847656 -9.4765625 29.79882812 C-15.00144082 29.30158908 -20.50050598 28.72671885 -26 28 C-24.39626852 23.99482604 -21.57886014 21.3228902 -18.5546875 18.359375 C-17.75987473 17.56880707 -17.75987473 17.56880707 -16.94900513 16.76226807 C-15.26232175 15.08674325 -13.56880436 13.41832278 -11.875 11.75 C-10.72740612 10.61244149 -9.58026539 9.47442564 -8.43359375 8.3359375 C-5.62761863 5.55196535 -2.81549536 2.7743424 0 0 Z " fill="#B0D87C" transform="translate(132,159)"/>
<path d="M0 0 C6.33922368 4.55460631 10.98423439 10.39846608 15.69921875 16.5625 C15.36921875 17.2225 15.03921875 17.8825 14.69921875 18.5625 C14.09078125 18.0778125 13.48234375 17.593125 12.85546875 17.09375 C-0.01854209 7.24891818 -13.68194464 1.58319061 -29.30078125 -2.4375 C-29.30078125 -3.0975 -29.30078125 -3.7575 -29.30078125 -4.4375 C-18.96339969 -7.50875104 -8.96229991 -5.59953543 0 0 Z " fill="#A6CC75" transform="translate(146.30078125,77.4375)"/>
<path d="M0 0 C1.77049689 -0.05410687 3.54146849 -0.09284119 5.3125 -0.125 C6.29863281 -0.14820313 7.28476563 -0.17140625 8.30078125 -0.1953125 C11 0 11 0 14 2 C10.37 5.63 6.74 9.26 3 13 C0.41073669 10.41073669 0.62601957 8.97294721 0.375 5.375 C0.30023438 4.37210938 0.22546875 3.36921875 0.1484375 2.3359375 C0.09945312 1.56507813 0.05046875 0.79421875 0 0 Z " fill="#AED57A" transform="translate(92,161)"/>
</svg>
